<?xml version="1.0" encoding="utf-8"?>
<!-- Generator: Adobe Illustrator 23.0.1, SVG Export Plug-In . SVG Version: 6.00 Build 0)  -->
<svg version="1.1" id="レイヤー_1" xmlns="http://www.w3.org/2000/svg" xmlns:xlink="http://www.w3.org/1999/xlink" x="0px"
	 y="0px" viewBox="0 0 15 18.9" style="enable-background:new 0 0 15 18.9;" xml:space="preserve">
<style type="text/css">
	.st0{fill:#FFFFFF;}
</style>
<g>
	<path class="st0" d="M48.2,8.2V4.5c0-1.4,1.1-2.5,2.5-2.5s2.5,1.1,2.5,2.5v3.7c1.2-0.8,2-2.2,2-3.7c0-2.5-2-4.5-4.5-4.5
		c-2.5,0-4.5,2-4.5,4.5C46.2,6.1,47,7.4,48.2,8.2z M58.1,11.5l-4.5-2.3c-0.2-0.1-0.3-0.1-0.5-0.1h-0.8V4.5c0-0.8-0.7-1.5-1.5-1.5
		c-0.8,0-1.5,0.7-1.5,1.5v9.4l-3.4-0.7c-0.1,0-0.2,0-0.2,0c-0.3,0-0.6,0.1-0.8,0.3L44,14.2l4.9,4.2c0.3,0.3,0.7,0.4,1.1,0.4h6.8
		c0.8,0,1.3,0.2,1.4-0.6l0.8-5.3c0-0.1,0-0.1,0-0.2C59,12.3,58.6,11.7,58.1,11.5z"/>
</g>
<g>
	<g>
		<path class="st0" d="M14.1,10.8L9.6,8.5C9.4,8.4,9.2,8.4,9,8.4H8.2V1.6c0-0.8-0.7-1.5-1.5-1.5S5.2,0.8,5.2,1.6v11.5l-3.4-0.7
			c-0.1,0-0.2,0-0.2,0c-0.3,0-0.6,0.1-0.8,0.3L0,13.5l4.9,4.9c0.3,0.3,0.6,0.4,1.1,0.4h6.8c0.8,0,1.3-0.5,1.4-1.3l0.8-5.3
			c0-0.1,0-0.1,0-0.2C15,11.5,14.6,11,14.1,10.8z"/>
	</g>
</g>
</svg>
